# xmcd CD database file
#
# Track frame offsets:
#	150
#	39849
#	73998
#	102623
#	136833
#	163563
#	192688
#	223373
#	248903
#	283500
#	313412
#
# Disc length: 4667 seconds
#
# Revision: 0
# Processed by: cddbd v1.5.1PL0 Copyright (c) Steve Scherf et al.
# Submitted via: CDex 1.51
#
DISCID=b312390b
DTITLE=Various Artist - Promo Only Canada April 2005 Mainstream Club
DYEAR=2005
DGENRE=Country
TTITLE0=Shapeshfiters - Back To Basics (Main Vocal Mix)
TTITLE1=Sunset Strippers - Falling Star (Club Mix)
TTITLE2=Richard Gray Presents Gate 54 - What A Feeling (Make It Happen) (Club Mix)
TTITLE3=Olav Basoski - Waterman (Original 12 Inch Mix)
TTITLE4=Jennifer Lopez - Get Right (Louie Vega Club Mix)
TTITLE5=The Lovefreekz - Shine (Extended Mix)
TTITLE6=Bodyrockers - I Like The Way You Move (Full Length Version)
TTITLE7=Disco Kings - Born To Be Alive (Original Extended Mix)
TTITLE8=Seal - Killer 2005 (Peter Rauhofer Remix Part 1)
TTITLE9=Commander Tom - Attention (Original Club Mix)
TTITLE10=Reflekt Feat. Delline Bass - Need To Feel Love (Thrillseekers Remix)
EXTD=YEAR: 2005
EXTT0=
EXTT1=
EXTT2=
EXTT3=
EXTT4=
EXTT5=
EXTT6=
EXTT7=
EXTT8=
EXTT9=
EXTT10=
PLAYORDER=
